<?xml version="1.0" encoding="UTF-8"?>
<svg id="Layer_2" data-name="Layer 2" xmlns="http://www.w3.org/2000/svg" viewBox="0 0 77.29 87.78">
  <defs>
    <style>
      .cls-1 {
        fill: orange;
        stroke-width: 0px;
      }
    </style>
  </defs>
  <g id="Layer_1-2" data-name="Layer 1">
    <g>
      <path class="cls-1" d="M37.08,35.14c-3.84,2.25-7.69,4.52-11.63,6.73,1.37-10.27,2.06-15.45,3.44-25.86-7.74,4.12-11.62,5.85-19.36,2.28C6.52,38.14,3.43,57.98,0,77.77c7.74,10.18,11.62,10.81,19.36,9.52,1.36-9.9,2.03-14.92,3.39-25.04,4.08-2,8.01-4.16,11.89-6.39l2.45-20.72Z"/>
      <path class="cls-1" d="M57.93.49c-1.37,9.91-2.06,14.93-3.44,25.05-4.14,2.04-8.12,4.24-12.06,6.5l-2.45,20.72c3.9-2.29,7.8-4.59,11.8-6.83-1.35,10.26-2.03,15.43-3.39,25.83,7.74-4.12,11.61-5.85,19.36-2.28,3.02-19.85,6.12-39.69,9.53-59.48C69.54-.17,65.67-.8,57.93.49Z"/>
    </g>
  </g>
</svg>