<?xml version="1.0" encoding="UTF-8"?>
<svg id="Layer_2" data-name="Layer 2" xmlns="http://www.w3.org/2000/svg" viewBox="0 0 86.86 103.3">
  <defs>
    <style>
      .cls-1 {
        fill: orange;
        stroke-width: 0px;
      }
    </style>
  </defs>
  <g id="Layer_2-2" data-name="Layer 2">
    <g>
      <g>
        <path class="cls-1" d="M40.46,48.03c-5.31.13-7.96.35-13.23,1.08,1.5-10.66,2.25-15.98,3.76-26.59-8.48.9-12.7,1.73-20.95,4.17C6.65,52.22,3.3,77.75,0,103.3c8.06-3.19,12.21-4.4,20.6-6.06,1.47-10.74,2.2-16.1,3.68-26.79,5.24-.86,7.88-1.14,13.16-1.41,1.21-8.42,1.81-12.62,3.02-21.02Z"/>
        <path class="cls-1" d="M62.83,23.47c-1.5,10.2-2.24,15.31-3.75,25.56-4.76-.64-7.16-.83-11.95-.98-1.21,8.32-1.81,12.49-3.02,20.84,4.81.03,7.22.16,12.01.68-1.48,10.29-2.23,15.45-3.71,25.78,8.49.65,12.74,1.36,21.03,3.54,3.38-23.33,6.76-46.66,10.12-70-8.12-2.94-12.31-4.02-20.73-5.43Z"/>
      </g>
      <path class="cls-1" d="M12.8,3.43c-.23,1.53-.35,2.29-.58,3.82,21.37-4.75,40.18-4.83,61.65-.21,0,1.2,0,1.8,0,3-21.65-4.65-40.59-4.53-62.12.34-.2,1.35-.3,2.02-.51,3.36,21.7-5,40.78-5.16,62.63-.48v3c-22.03-4.71-41.23-4.51-63.1.61-.2,1.3-.29,1.96-.49,3.26,26.1-6.21,48.25-5.45,73.87,2.5,1.08-6,1.62-8.99,2.7-14.97C61.33-.94,39.13-2.22,12.8,3.43Z"/>
    </g>
  </g>
</svg>